<?xml version="1.0" encoding="utf-8"?>
<!-- Generator: Adobe Illustrator 16.0.0, SVG Export Plug-In . SVG Version: 6.00 Build 0)  -->
<!DOCTYPE svg PUBLIC "-//W3C//DTD SVG 1.1//EN" "http://www.w3.org/Graphics/SVG/1.1/DTD/svg11.dtd">
<svg version="1.1" id="Layer_1" xmlns="http://www.w3.org/2000/svg" xmlns:xlink="http://www.w3.org/1999/xlink" x="0px" y="0px"
	 width="95px" height="190px" viewBox="0 0 95 190" enable-background="new 0 0 95 190" xml:space="preserve">
<path fill="none" stroke="#000000" stroke-width="1.5" stroke-miterlimit="10" d="M91.1,190
	c-12.457-21.165-25.186-42.053-39.281-60.725C35.523,107.695,18.307,92.034,0,92.034"/>
<path fill="none" stroke="#000000" stroke-width="1.5" stroke-miterlimit="10" d="M91.098,0
	C78.641,21.166,65.913,42.053,51.816,60.723C35.521,82.304,18.307,97.968,0,97.968"/>
<path fill="none" stroke="#000000" stroke-width="1.5" stroke-miterlimit="10" d="M4.386,152.962
	c13.534-19.356,26.428-39.201,38.975-60.243c13.19-22.123,26.059-45.196,38.686-68.49C86.387,16.223,90.708,8.142,95,0"/>
<path fill="none" stroke="#000000" stroke-width="1.5" stroke-miterlimit="10" d="M3.757,36.14
	C17.521,55.784,30.62,75.914,43.361,97.281c13.19,22.125,26.059,45.199,38.686,68.49c4.34,8.006,8.66,16.088,12.951,24.229"/>
</svg>
